<svg width="590" height="174" viewBox="0 0 590 174" fill="none" xmlns="http://www.w3.org/2000/svg">
<g filter="url(#filter0_i_136_7)">
<path d="M38.4106 73.2C32.8772 73.2 27.7772 72.3333 23.1105 70.6C18.5105 68.8 14.4772 66.2667 11.0105 63C7.61055 59.7333 4.94388 55.9 3.01055 51.5C1.14388 47.1 0.210547 42.2667 0.210547 37C0.210547 31.7333 1.14388 26.9 3.01055 22.5C4.94388 18.1 7.64388 14.2667 11.1105 11C14.5772 7.73333 18.6439 5.23333 23.3105 3.49999C27.9772 1.7 33.1105 0.799999 38.7105 0.799999C44.9105 0.799999 50.4772 1.83333 55.4105 3.89999C60.4105 5.96666 64.6105 8.96666 68.0105 12.9L57.6106 22.5C55.0772 19.8333 52.3106 17.8667 49.3105 16.6C46.3105 15.2667 43.0439 14.6 39.5105 14.6C36.1105 14.6 33.0105 15.1333 30.2105 16.2C27.4105 17.2667 24.9772 18.8 22.9105 20.8C20.9105 22.8 19.3439 25.1667 18.2105 27.9C17.1439 30.6333 16.6105 33.6667 16.6105 37C16.6105 40.2667 17.1439 43.2667 18.2105 46C19.3439 48.7333 20.9105 51.1333 22.9105 53.2C24.9772 55.2 27.3772 56.7333 30.1105 57.8C32.9105 58.8667 35.9772 59.4 39.3105 59.4C42.5105 59.4 45.6105 58.9 48.6105 57.9C51.6772 56.8333 54.6439 55.0667 57.5106 52.6L66.7106 64.3C62.9105 67.1667 58.4772 69.3667 53.4106 70.9C48.4105 72.4333 43.4105 73.2 38.4106 73.2ZM51.9106 62.2V35.9H66.7106V64.3L51.9106 62.2ZM91.759 72V2H122.059C128.326 2 133.726 3.03333 138.259 5.1C142.792 7.1 146.292 10 148.759 13.8C151.226 17.6 152.459 22.1333 152.459 27.4C152.459 32.6 151.226 37.1 148.759 40.9C146.292 44.6333 142.792 47.5 138.259 49.5C133.726 51.5 128.326 52.5 122.059 52.5H100.759L107.959 45.4V72H91.759ZM136.259 72L118.759 46.6H136.059L153.759 72H136.259ZM107.959 47.2L100.759 39.6H121.159C126.159 39.6 129.892 38.5333 132.359 36.4C134.826 34.2 136.059 31.2 136.059 27.4C136.059 23.5333 134.826 20.5333 132.359 18.4C129.892 16.2667 126.159 15.2 121.159 15.2H100.759L107.959 7.5V47.2ZM209.294 73.2C203.761 73.2 198.627 72.3 193.894 70.5C189.227 68.7 185.161 66.1667 181.694 62.9C178.294 59.6333 175.627 55.8 173.694 51.4C171.827 47 170.894 42.2 170.894 37C170.894 31.8 171.827 27 173.694 22.6C175.627 18.2 178.327 14.3667 181.794 11.1C185.261 7.83333 189.327 5.29999 193.994 3.49999C198.661 1.7 203.727 0.799999 209.194 0.799999C214.727 0.799999 219.794 1.7 224.394 3.49999C229.061 5.29999 233.094 7.83333 236.494 11.1C239.961 14.3667 242.661 18.2 244.594 22.6C246.527 26.9333 247.494 31.7333 247.494 37C247.494 42.2 246.527 47.0333 244.594 51.5C242.661 55.9 239.961 59.7333 236.494 63C233.094 66.2 229.061 68.7 224.394 70.5C219.794 72.3 214.761 73.2 209.294 73.2ZM209.194 59.4C212.327 59.4 215.194 58.8667 217.794 57.8C220.461 56.7333 222.794 55.2 224.794 53.2C226.794 51.2 228.327 48.8333 229.394 46.1C230.527 43.3667 231.094 40.3333 231.094 37C231.094 33.6667 230.527 30.6333 229.394 27.9C228.327 25.1667 226.794 22.8 224.794 20.8C222.861 18.8 220.561 17.2667 217.894 16.2C215.227 15.1333 212.327 14.6 209.194 14.6C206.061 14.6 203.161 15.1333 200.494 16.2C197.894 17.2667 195.594 18.8 193.594 20.8C191.594 22.8 190.027 25.1667 188.894 27.9C187.827 30.6333 187.294 33.6667 187.294 37C187.294 40.2667 187.827 43.3 188.894 46.1C190.027 48.8333 191.561 51.2 193.494 53.2C195.494 55.2 197.827 56.7333 200.494 57.8C203.161 58.8667 206.061 59.4 209.194 59.4ZM284.223 72L261.323 2H278.123L298.023 64H289.623L310.423 2H325.423L345.423 64H337.323L357.723 2H373.223L350.323 72H332.923L315.223 17.6H319.823L301.623 72H284.223ZM392.267 72V2H408.467V72H392.267ZM435.079 72V2H448.479L489.779 52.4H483.279V2H499.279V72H485.979L444.579 21.6H451.079V72H435.079ZM559.641 73.2C554.108 73.2 549.008 72.3333 544.341 70.6C539.741 68.8 535.708 66.2667 532.241 63C528.841 59.7333 526.174 55.9 524.241 51.5C522.374 47.1 521.441 42.2667 521.441 37C521.441 31.7333 522.374 26.9 524.241 22.5C526.174 18.1 528.874 14.2667 532.341 11C535.808 7.73333 539.874 5.23333 544.541 3.49999C549.208 1.7 554.341 0.799999 559.941 0.799999C566.141 0.799999 571.708 1.83333 576.641 3.89999C581.641 5.96666 585.841 8.96666 589.241 12.9L578.841 22.5C576.308 19.8333 573.541 17.8667 570.541 16.6C567.541 15.2667 564.274 14.6 560.741 14.6C557.341 14.6 554.241 15.1333 551.441 16.2C548.641 17.2667 546.208 18.8 544.141 20.8C542.141 22.8 540.574 25.1667 539.441 27.9C538.374 30.6333 537.841 33.6667 537.841 37C537.841 40.2667 538.374 43.2667 539.441 46C540.574 48.7333 542.141 51.1333 544.141 53.2C546.208 55.2 548.608 56.7333 551.341 57.8C554.141 58.8667 557.208 59.4 560.541 59.4C563.741 59.4 566.841 58.9 569.841 57.9C572.908 56.8333 575.874 55.0667 578.741 52.6L587.941 64.3C584.141 67.1667 579.708 69.3667 574.641 70.9C569.641 72.4333 564.641 73.2 559.641 73.2ZM573.141 62.2V35.9H587.941V64.3L573.141 62.2ZM14.5031 172V102H30.7031V172H14.5031ZM57.3156 172V102H70.7156L112.016 152.4H105.516V102H121.516V172H108.216L66.8156 121.6H73.3156V172H57.3156ZM220.198 173.2C214.664 173.2 209.564 172.333 204.898 170.6C200.298 168.8 196.264 166.267 192.798 163C189.398 159.733 186.731 155.9 184.798 151.5C182.931 147.1 181.998 142.267 181.998 137C181.998 131.733 182.931 126.9 184.798 122.5C186.731 118.1 189.431 114.267 192.898 111C196.364 107.733 200.431 105.233 205.098 103.5C209.764 101.7 214.898 100.8 220.498 100.8C226.698 100.8 232.264 101.833 237.198 103.9C242.198 105.967 246.398 108.967 249.798 112.9L239.398 122.5C236.864 119.833 234.098 117.867 231.098 116.6C228.098 115.267 224.831 114.6 221.298 114.6C217.898 114.6 214.798 115.133 211.998 116.2C209.198 117.267 206.764 118.8 204.698 120.8C202.698 122.8 201.131 125.167 199.998 127.9C198.931 130.633 198.398 133.667 198.398 137C198.398 140.267 198.931 143.267 199.998 146C201.131 148.733 202.698 151.133 204.698 153.2C206.764 155.2 209.164 156.733 211.898 157.8C214.698 158.867 217.764 159.4 221.098 159.4C224.298 159.4 227.398 158.9 230.398 157.9C233.464 156.833 236.431 155.067 239.298 152.6L248.498 164.3C244.698 167.167 240.264 169.367 235.198 170.9C230.198 172.433 225.198 173.2 220.198 173.2ZM233.698 162.2V135.9H248.498V164.3L233.698 162.2ZM273.546 172V102H303.846C310.113 102 315.513 103.033 320.046 105.1C324.579 107.1 328.079 110 330.546 113.8C333.013 117.6 334.246 122.133 334.246 127.4C334.246 132.6 333.013 137.1 330.546 140.9C328.079 144.633 324.579 147.5 320.046 149.5C315.513 151.5 310.113 152.5 303.846 152.5H282.546L289.746 145.4V172H273.546ZM318.046 172L300.546 146.6H317.846L335.546 172H318.046ZM289.746 147.2L282.546 139.6H302.946C307.946 139.6 311.679 138.533 314.146 136.4C316.613 134.2 317.846 131.2 317.846 127.4C317.846 123.533 316.613 120.533 314.146 118.4C311.679 116.267 307.946 115.2 302.946 115.2H282.546L289.746 107.5V147.2ZM347.881 172L379.081 102H395.081L426.381 172H409.381L383.781 110.2H390.181L364.481 172H347.881ZM363.481 157L367.781 144.7H403.781L408.181 157H363.481ZM476.167 173.2C470.767 173.2 465.734 172.333 461.067 170.6C456.467 168.8 452.467 166.267 449.067 163C445.667 159.733 443.001 155.9 441.067 151.5C439.201 147.1 438.267 142.267 438.267 137C438.267 131.733 439.201 126.9 441.067 122.5C443.001 118.1 445.667 114.267 449.067 111C452.534 107.733 456.567 105.233 461.167 103.5C465.767 101.7 470.801 100.8 476.267 100.8C482.334 100.8 487.801 101.867 492.667 104C497.601 106.067 501.734 109.133 505.067 113.2L494.667 122.8C492.267 120.067 489.601 118.033 486.667 116.7C483.734 115.3 480.534 114.6 477.067 114.6C473.801 114.6 470.801 115.133 468.067 116.2C465.334 117.267 462.967 118.8 460.967 120.8C458.967 122.8 457.401 125.167 456.267 127.9C455.201 130.633 454.667 133.667 454.667 137C454.667 140.333 455.201 143.367 456.267 146.1C457.401 148.833 458.967 151.2 460.967 153.2C462.967 155.2 465.334 156.733 468.067 157.8C470.801 158.867 473.801 159.4 477.067 159.4C480.534 159.4 483.734 158.733 486.667 157.4C489.601 156 492.267 153.9 494.667 151.1L505.067 160.7C501.734 164.767 497.601 167.867 492.667 170C487.801 172.133 482.301 173.2 476.167 173.2ZM540.907 130.2H574.607V142.8H540.907V130.2ZM542.107 159H580.207V172H526.007V102H578.907V115H542.107V159Z" fill="#B3C2E3"/>
</g>
<defs>
<filter id="filter0_i_136_7" x="0.210449" y="0.799988" width="589.031" height="176.4" filterUnits="userSpaceOnUse" color-interpolation-filters="sRGB">
<feFlood flood-opacity="0" result="BackgroundImageFix"/>
<feBlend mode="normal" in="SourceGraphic" in2="BackgroundImageFix" result="shape"/>
<feColorMatrix in="SourceAlpha" type="matrix" values="0 0 0 0 0 0 0 0 0 0 0 0 0 0 0 0 0 0 127 0" result="hardAlpha"/>
<feOffset dy="4"/>
<feGaussianBlur stdDeviation="2"/>
<feComposite in2="hardAlpha" operator="arithmetic" k2="-1" k3="1"/>
<feColorMatrix type="matrix" values="0 0 0 0 0 0 0 0 0 0 0 0 0 0 0 0 0 0 0.25 0"/>
<feBlend mode="normal" in2="shape" result="effect1_innerShadow_136_7"/>
</filter>
</defs>
</svg>
