<svg width="1047" height="64" viewBox="0 0 1047 64" fill="none" xmlns="http://www.w3.org/2000/svg">
<g filter="url(#filter0_i_150_127)">
<path d="M33.33 63.032C28.5714 63.032 24.1854 62.2867 20.172 60.796C16.216 59.248 12.7474 57.0693 9.76602 54.26C6.84202 51.4507 4.54869 48.154 2.88602 44.37C1.28069 40.586 0.478024 36.4293 0.478024 31.9C0.478024 27.3707 1.28069 23.214 2.88602 19.43C4.54869 15.646 6.87069 12.3493 9.85202 9.54C12.8334 6.73066 16.3307 4.58066 20.344 3.08999C24.3574 1.542 28.772 0.767999 33.588 0.767999C38.92 0.767999 43.7074 1.65666 47.95 3.434C52.25 5.21133 55.862 7.79133 58.786 11.174L49.842 19.43C47.6634 17.1367 45.284 15.4453 42.704 14.356C40.124 13.2093 37.3147 12.636 34.276 12.636C31.352 12.636 28.686 13.0947 26.278 14.012C23.87 14.9293 21.7774 16.248 20 17.968C18.28 19.688 16.9327 21.7233 15.958 24.074C15.0407 26.4247 14.582 29.0333 14.582 31.9C14.582 34.7093 15.0407 37.2893 15.958 39.64C16.9327 41.9907 18.28 44.0547 20 45.832C21.7774 47.552 23.8414 48.8707 26.192 49.788C28.6 50.7053 31.2374 51.164 34.104 51.164C36.856 51.164 39.522 50.734 42.102 49.874C44.7394 48.9567 47.2907 47.4373 49.756 45.316L57.668 55.378C54.4 57.8433 50.5874 59.7353 46.23 61.054C41.93 62.3727 37.63 63.032 33.33 63.032ZM44.94 53.572V30.954H57.668V55.378L44.94 53.572ZM79.2097 62V1.8H105.268C110.657 1.8 115.301 2.68866 119.2 4.466C123.098 6.186 126.108 8.68 128.23 11.948C130.351 15.216 131.412 19.1147 131.412 23.644C131.412 28.116 130.351 31.986 128.23 35.254C126.108 38.4647 123.098 40.93 119.2 42.65C115.301 44.37 110.657 45.23 105.268 45.23H86.9497L93.1417 39.124V62H79.2097ZM117.48 62L102.43 40.156H117.308L132.53 62H117.48ZM93.1417 40.672L86.9497 34.136H104.494C108.794 34.136 112.004 33.2187 114.126 31.384C116.247 29.492 117.308 26.912 117.308 23.644C117.308 20.3187 116.247 17.7387 114.126 15.904C112.004 14.0693 108.794 13.152 104.494 13.152H86.9497L93.1417 6.53V40.672ZM180.29 63.032C175.531 63.032 171.117 62.258 167.046 60.71C163.033 59.162 159.535 56.9833 156.554 54.174C153.63 51.3647 151.337 48.068 149.674 44.284C148.069 40.5 147.266 36.372 147.266 31.9C147.266 27.428 148.069 23.3 149.674 19.516C151.337 15.732 153.659 12.4353 156.64 9.626C159.621 6.81666 163.119 4.638 167.132 3.08999C171.145 1.542 175.503 0.767999 180.204 0.767999C184.963 0.767999 189.32 1.542 193.276 3.08999C197.289 4.638 200.758 6.81666 203.682 9.626C206.663 12.4353 208.985 15.732 210.648 19.516C212.311 23.2427 213.142 27.3707 213.142 31.9C213.142 36.372 212.311 40.5287 210.648 44.37C208.985 48.154 206.663 51.4507 203.682 54.26C200.758 57.012 197.289 59.162 193.276 60.71C189.32 62.258 184.991 63.032 180.29 63.032ZM180.204 51.164C182.899 51.164 185.364 50.7053 187.6 49.788C189.893 48.8707 191.9 47.552 193.62 45.832C195.34 44.112 196.659 42.0767 197.576 39.726C198.551 37.3753 199.038 34.7667 199.038 31.9C199.038 29.0333 198.551 26.4247 197.576 24.074C196.659 21.7233 195.34 19.688 193.62 17.968C191.957 16.248 189.979 14.9293 187.686 14.012C185.393 13.0947 182.899 12.636 180.204 12.636C177.509 12.636 175.015 13.0947 172.722 14.012C170.486 14.9293 168.508 16.248 166.788 17.968C165.068 19.688 163.721 21.7233 162.746 24.074C161.829 26.4247 161.37 29.0333 161.37 31.9C161.37 34.7093 161.829 37.318 162.746 39.726C163.721 42.0767 165.039 44.112 166.702 45.832C168.422 47.552 170.429 48.8707 172.722 49.788C175.015 50.7053 177.509 51.164 180.204 51.164ZM244.729 62L225.035 1.8H239.483L256.597 55.12H249.373L267.261 1.8H280.161L297.361 55.12H290.395L307.939 1.8H321.269L301.575 62H286.611L271.389 15.216H275.345L259.693 62H244.729ZM337.646 62V1.8H351.578V62H337.646ZM374.465 62V1.8H385.989L421.507 45.144H415.917V1.8H429.677V62H418.239L382.635 18.656H388.225V62H374.465ZM481.588 63.032C476.83 63.032 472.444 62.2867 468.43 60.796C464.474 59.248 461.006 57.0693 458.024 54.26C455.1 51.4507 452.807 48.154 451.144 44.37C449.539 40.586 448.736 36.4293 448.736 31.9C448.736 27.3707 449.539 23.214 451.144 19.43C452.807 15.646 455.129 12.3493 458.11 9.54C461.092 6.73066 464.589 4.58066 468.602 3.08999C472.616 1.542 477.03 0.767999 481.846 0.767999C487.178 0.767999 491.966 1.65666 496.208 3.434C500.508 5.21133 504.12 7.79133 507.044 11.174L498.1 19.43C495.922 17.1367 493.542 15.4453 490.962 14.356C488.382 13.2093 485.573 12.636 482.534 12.636C479.61 12.636 476.944 13.0947 474.536 14.012C472.128 14.9293 470.036 16.248 468.258 17.968C466.538 19.688 465.191 21.7233 464.216 24.074C463.299 26.4247 462.84 29.0333 462.84 31.9C462.84 34.7093 463.299 37.2893 464.216 39.64C465.191 41.9907 466.538 44.0547 468.258 45.832C470.036 47.552 472.1 48.8707 474.45 49.788C476.858 50.7053 479.496 51.164 482.362 51.164C485.114 51.164 487.78 50.734 490.36 49.874C492.998 48.9567 495.549 47.4373 498.014 45.316L505.926 55.378C502.658 57.8433 498.846 59.7353 494.488 61.054C490.188 62.3727 485.888 63.032 481.588 63.032ZM493.198 53.572V30.954H505.926V55.378L493.198 53.572ZM560.423 62V1.8H574.355V62H560.423ZM597.242 62V1.8H608.766L644.284 45.144H638.694V1.8H652.454V62H641.016L605.412 18.656H611.002V62H597.242ZM737.321 63.032C732.562 63.032 728.176 62.2867 724.163 60.796C720.207 59.248 716.738 57.0693 713.757 54.26C710.833 51.4507 708.539 48.154 706.877 44.37C705.271 40.586 704.469 36.4293 704.469 31.9C704.469 27.3707 705.271 23.214 706.877 19.43C708.539 15.646 710.861 12.3493 713.843 9.54C716.824 6.73066 720.321 4.58066 724.335 3.08999C728.348 1.542 732.763 0.767999 737.579 0.767999C742.911 0.767999 747.698 1.65666 751.941 3.434C756.241 5.21133 759.853 7.79133 762.777 11.174L753.833 19.43C751.654 17.1367 749.275 15.4453 746.695 14.356C744.115 13.2093 741.305 12.636 738.267 12.636C735.343 12.636 732.677 13.0947 730.269 14.012C727.861 14.9293 725.768 16.248 723.991 17.968C722.271 19.688 720.923 21.7233 719.949 24.074C719.031 26.4247 718.573 29.0333 718.573 31.9C718.573 34.7093 719.031 37.2893 719.949 39.64C720.923 41.9907 722.271 44.0547 723.991 45.832C725.768 47.552 727.832 48.8707 730.183 49.788C732.591 50.7053 735.228 51.164 738.095 51.164C740.847 51.164 743.513 50.734 746.093 49.874C748.73 48.9567 751.281 47.4373 753.747 45.316L761.659 55.378C758.391 57.8433 754.578 59.7353 750.221 61.054C745.921 62.3727 741.621 63.032 737.321 63.032ZM748.931 53.572V30.954H761.659V55.378L748.931 53.572ZM783.2 62V1.8H809.258C814.648 1.8 819.292 2.68866 823.19 4.466C827.089 6.186 830.099 8.68 832.22 11.948C834.342 15.216 835.402 19.1147 835.402 23.644C835.402 28.116 834.342 31.986 832.22 35.254C830.099 38.4647 827.089 40.93 823.19 42.65C819.292 44.37 814.648 45.23 809.258 45.23H790.94L797.132 39.124V62H783.2ZM821.47 62L806.42 40.156H821.298L836.52 62H821.47ZM797.132 40.672L790.94 34.136H808.484C812.784 34.136 815.995 33.2187 818.116 31.384C820.238 29.492 821.298 26.912 821.298 23.644C821.298 20.3187 820.238 17.7387 818.116 15.904C815.995 14.0693 812.784 13.152 808.484 13.152H790.94L797.132 6.53V40.672ZM847.129 62L873.961 1.8H887.721L914.639 62H900.019L878.003 8.852H883.507L861.405 62H847.129ZM860.545 49.1L864.243 38.522H895.203L898.987 49.1H860.545ZM957.454 63.032C952.81 63.032 948.482 62.2867 944.468 60.796C940.512 59.248 937.072 57.0693 934.148 54.26C931.224 51.4507 928.931 48.154 927.268 44.37C925.663 40.586 924.86 36.4293 924.86 31.9C924.86 27.3707 925.663 23.214 927.268 19.43C928.931 15.646 931.224 12.3493 934.148 9.54C937.13 6.73066 940.598 4.58066 944.554 3.08999C948.51 1.542 952.839 0.767999 957.54 0.767999C962.758 0.767999 967.459 1.68533 971.644 3.52C975.887 5.29733 979.442 7.93466 982.308 11.432L973.364 19.688C971.3 17.3373 969.007 15.5887 966.484 14.442C963.962 13.238 961.21 12.636 958.228 12.636C955.419 12.636 952.839 13.0947 950.488 14.012C948.138 14.9293 946.102 16.248 944.382 17.968C942.662 19.688 941.315 21.7233 940.34 24.074C939.423 26.4247 938.964 29.0333 938.964 31.9C938.964 34.7667 939.423 37.3753 940.34 39.726C941.315 42.0767 942.662 44.112 944.382 45.832C946.102 47.552 948.138 48.8707 950.488 49.788C952.839 50.7053 955.419 51.164 958.228 51.164C961.21 51.164 963.962 50.5907 966.484 49.444C969.007 48.24 971.3 46.434 973.364 44.026L982.308 52.282C979.442 55.7793 975.887 58.4453 971.644 60.28C967.459 62.1147 962.729 63.032 957.454 63.032ZM1013.13 26.052H1042.11V36.888H1013.13V26.052ZM1014.16 50.82H1046.93V62H1000.32V1.8H1045.81V12.98H1014.16V50.82Z" fill="#B3C2E3"/>
</g>
<defs>
<filter id="filter0_i_150_127" x="0.478027" y="0.768066" width="1046.45" height="66.2639" filterUnits="userSpaceOnUse" color-interpolation-filters="sRGB">
<feFlood flood-opacity="0" result="BackgroundImageFix"/>
<feBlend mode="normal" in="SourceGraphic" in2="BackgroundImageFix" result="shape"/>
<feColorMatrix in="SourceAlpha" type="matrix" values="0 0 0 0 0 0 0 0 0 0 0 0 0 0 0 0 0 0 127 0" result="hardAlpha"/>
<feOffset dy="4"/>
<feGaussianBlur stdDeviation="2"/>
<feComposite in2="hardAlpha" operator="arithmetic" k2="-1" k3="1"/>
<feColorMatrix type="matrix" values="0 0 0 0 0 0 0 0 0 0 0 0 0 0 0 0 0 0 0.25 0"/>
<feBlend mode="normal" in2="shape" result="effect1_innerShadow_150_127"/>
</filter>
</defs>
</svg>
