<svg width="961" height="64" viewBox="0 0 961 64" fill="none" xmlns="http://www.w3.org/2000/svg">
<g filter="url(#filter0_i_150_127)">
<path d="M28.5361 63.032C22.8601 63.032 17.9007 61.742 13.6581 59.162C9.4154 56.582 6.11874 52.9987 3.76807 48.412C1.4174 43.768 0.24207 38.3787 0.24207 32.244C0.24207 26.052 1.44607 20.6053 3.85407 15.904C6.3194 11.1453 9.78807 7.44733 14.2601 4.81C18.7894 2.11533 24.1501 0.767999 30.3421 0.767999C37.3941 0.767999 43.2421 2.45933 47.8861 5.842C52.5301 9.22466 55.5401 13.8973 56.9161 19.86H44.6181C43.7007 17.0507 42.0381 14.872 39.6301 13.324C37.2221 11.7187 34.1261 10.916 30.3421 10.916C24.3221 10.916 19.6781 12.8367 16.4101 16.678C13.1421 20.462 11.5081 25.6793 11.5081 32.33C11.5081 38.9807 13.1134 44.1407 16.3241 47.81C19.5921 51.422 24.0067 53.228 29.5681 53.228C35.0147 53.228 39.1141 51.766 41.8661 48.842C44.6754 45.8607 46.3667 41.962 46.9401 37.146H31.7181V28.89H58.0341V62H47.8861L47.0261 54.088C45.0767 56.9547 42.6401 59.162 39.7161 60.71C36.7921 62.258 33.0654 63.032 28.5361 63.032ZM77.3357 62V1.8H99.4377C104.254 1.8 108.21 2.63133 111.306 4.294C114.459 5.89933 116.81 8.10667 118.358 10.916C119.906 13.668 120.68 16.7353 120.68 20.118C120.68 23.7873 119.705 27.1413 117.756 30.18C115.864 33.2187 112.882 35.426 108.812 36.802L121.282 62H108.64L97.4597 38.264H88.3437V62H77.3357ZM88.3437 30.18H98.7497C102.419 30.18 105.114 29.2913 106.834 27.514C108.554 25.7367 109.414 23.386 109.414 20.462C109.414 17.5953 108.554 15.302 106.834 13.582C105.171 11.862 102.448 11.002 98.6637 11.002H88.3437V30.18ZM167.726 63.032C161.706 63.032 156.431 61.7133 151.902 59.076C147.43 56.4387 143.904 52.798 141.324 48.154C138.801 43.4527 137.54 38.0347 137.54 31.9C137.54 25.7653 138.801 20.376 141.324 15.732C143.904 11.0307 147.43 7.36133 151.902 4.724C156.431 2.08667 161.706 0.767999 167.726 0.767999C173.688 0.767999 178.934 2.08667 183.464 4.724C187.993 7.36133 191.519 11.0307 194.042 15.732C196.564 20.376 197.826 25.7653 197.826 31.9C197.826 38.0347 196.564 43.4527 194.042 48.154C191.519 52.798 187.993 56.4387 183.464 59.076C178.934 61.7133 173.688 63.032 167.726 63.032ZM167.726 53.142C173.459 53.142 178.017 51.25 181.4 47.466C184.84 43.682 186.56 38.4933 186.56 31.9C186.56 25.3067 184.84 20.118 181.4 16.334C178.017 12.55 173.459 10.658 167.726 10.658C161.992 10.658 157.406 12.55 153.966 16.334C150.526 20.118 148.806 25.3067 148.806 31.9C148.806 38.4933 150.526 43.682 153.966 47.466C157.406 51.25 161.992 53.142 167.726 53.142ZM225.754 62L209.844 1.8H221.626L232.462 49.702L245.19 1.8H257.316L269.7 49.702L280.536 1.8H292.404L276.064 62H262.992L251.038 17.366L238.74 62H225.754ZM308.981 62V1.8H319.989V62H308.981ZM340.257 62V1.8H351.265L379.559 44.198V1.8H390.567V62H379.559L351.265 19.688V62H340.257ZM437.154 63.032C431.478 63.032 426.518 61.742 422.276 59.162C418.033 56.582 414.736 52.9987 412.386 48.412C410.035 43.768 408.86 38.3787 408.86 32.244C408.86 26.052 410.064 20.6053 412.472 15.904C414.937 11.1453 418.406 7.44733 422.878 4.81C427.407 2.11533 432.768 0.767999 438.96 0.767999C446.012 0.767999 451.86 2.45933 456.504 5.842C461.148 9.22466 464.158 13.8973 465.534 19.86H453.236C452.318 17.0507 450.656 14.872 448.248 13.324C445.84 11.7187 442.744 10.916 438.96 10.916C432.94 10.916 428.296 12.8367 425.028 16.678C421.76 20.462 420.126 25.6793 420.126 32.33C420.126 38.9807 421.731 44.1407 424.942 47.81C428.21 51.422 432.624 53.228 438.186 53.228C443.632 53.228 447.732 51.766 450.484 48.842C453.293 45.8607 454.984 41.962 455.558 37.146H440.336V28.89H466.652V62H456.504L455.644 54.088C453.694 56.9547 451.258 59.162 448.334 60.71C445.41 62.258 441.683 63.032 437.154 63.032ZM515.045 62V1.8H526.053V62H515.045ZM546.321 62V1.8H557.329L585.623 44.198V1.8H596.631V62H585.623L557.329 19.688V62H546.321ZM672.31 63.032C666.634 63.032 661.675 61.742 657.432 59.162C653.189 56.582 649.893 52.9987 647.542 48.412C645.191 43.768 644.016 38.3787 644.016 32.244C644.016 26.052 645.22 20.6053 647.628 15.904C650.093 11.1453 653.562 7.44733 658.034 4.81C662.563 2.11533 667.924 0.767999 674.116 0.767999C681.168 0.767999 687.016 2.45933 691.66 5.842C696.304 9.22466 699.314 13.8973 700.69 19.86H688.392C687.475 17.0507 685.812 14.872 683.404 13.324C680.996 11.7187 677.9 10.916 674.116 10.916C668.096 10.916 663.452 12.8367 660.184 16.678C656.916 20.462 655.282 25.6793 655.282 32.33C655.282 38.9807 656.887 44.1407 660.098 47.81C663.366 51.422 667.781 53.228 673.342 53.228C678.789 53.228 682.888 51.766 685.64 48.842C688.449 45.8607 690.141 41.962 690.714 37.146H675.492V28.89H701.808V62H691.66L690.8 54.088C688.851 56.9547 686.414 59.162 683.49 60.71C680.566 62.258 676.839 63.032 672.31 63.032ZM721.11 62V1.8H743.212C748.028 1.8 751.984 2.63133 755.08 4.294C758.233 5.89933 760.584 8.10667 762.132 10.916C763.68 13.668 764.454 16.7353 764.454 20.118C764.454 23.7873 763.479 27.1413 761.53 30.18C759.638 33.2187 756.656 35.426 752.586 36.802L765.056 62H752.414L741.234 38.264H732.118V62H721.11ZM732.118 30.18H742.524C746.193 30.18 748.888 29.2913 750.608 27.514C752.328 25.7367 753.188 23.386 753.188 20.462C753.188 17.5953 752.328 15.302 750.608 13.582C748.945 11.862 746.222 11.002 742.438 11.002H732.118V30.18ZM779.422 62L801.438 1.8H813.822L835.838 62H824.142L819.326 48.068H795.848L790.946 62H779.422ZM798.858 39.468H816.316L807.544 14.442L798.858 39.468ZM876.011 63.032C869.934 63.032 864.716 61.742 860.359 59.162C856.002 56.5247 852.648 52.884 850.297 48.24C847.946 43.5387 846.771 38.1207 846.771 31.986C846.771 25.8513 847.946 20.4333 850.297 15.732C852.648 11.0307 856.002 7.36133 860.359 4.724C864.716 2.08667 869.934 0.767999 876.011 0.767999C883.235 0.767999 889.14 2.574 893.727 6.186C898.371 9.74066 901.266 14.7573 902.413 21.236H890.287C889.542 17.968 887.936 15.4167 885.471 13.582C883.063 11.69 879.852 10.744 875.839 10.744C870.278 10.744 865.92 12.636 862.767 16.42C859.614 20.204 858.037 25.3927 858.037 31.986C858.037 38.5793 859.614 43.768 862.767 47.552C865.92 51.2787 870.278 53.142 875.839 53.142C879.852 53.142 883.063 52.282 885.471 50.562C887.936 48.7847 889.542 46.348 890.287 43.252H902.413C901.266 49.444 898.371 54.2887 893.727 57.786C889.14 61.2833 883.235 63.032 876.011 63.032ZM920.757 62V1.8H960.059V10.658H931.765V27.17H957.479V35.77H931.765V53.142H960.059V62H920.757Z" fill="#B3C2E3"/>
</g>
<defs>
<filter id="filter0_i_150_127" x="0.242188" y="0.768066" width="959.817" height="66.2639" filterUnits="userSpaceOnUse" color-interpolation-filters="sRGB">
<feFlood flood-opacity="0" result="BackgroundImageFix"/>
<feBlend mode="normal" in="SourceGraphic" in2="BackgroundImageFix" result="shape"/>
<feColorMatrix in="SourceAlpha" type="matrix" values="0 0 0 0 0 0 0 0 0 0 0 0 0 0 0 0 0 0 127 0" result="hardAlpha"/>
<feOffset dy="4"/>
<feGaussianBlur stdDeviation="2"/>
<feComposite in2="hardAlpha" operator="arithmetic" k2="-1" k3="1"/>
<feColorMatrix type="matrix" values="0 0 0 0 0 0 0 0 0 0 0 0 0 0 0 0 0 0 0.25 0"/>
<feBlend mode="normal" in2="shape" result="effect1_innerShadow_150_127"/>
</filter>
</defs>
</svg>
